<?xml version="1.0"?>
<svg version="1.1" xmlns="http://www.w3.org/2000/svg" width="150" height="40" style=""><path fill="#e625ac" d="M15.96875,21.796875l0-1.203125l0-1.234375q0.015625-1.25,0.1015625-2.3984375t0.2421875-1.9140625q0.09375-0.421875,0.5625-0.515625t0.8125-0.09375q0.640625,0,0.9453125,0.15625t0.3984375,0.4453125t0.078125,0.6875t-0.015625,0.9140625q0,0.734375-0.03125,2.046875t-0.046875,2.90625l0,0.796875q0,1.203125,0.03125,2.484375q0.046875,1.71875,0.1796875,3.2890625t0.3671875,2.828125t0.65625,1.9296875q0.671875-0.609375,1.34375-1.7109375t1.28125-2.4765625t1.1640625-2.8984375t1.0078125-2.9765625t0.7734375-2.734375t0.4765625-2.171875q0.25-1.28125,0.3359375-2.609375t0.0859375-2.953125q0.484375-0.578125,0.75-0.7265625t0.84375-0.1484375q0.28125,0,0.5703125,0.046875t0.5546875,0.21875l0.21875,0.34375l0,0.390625q0,2.84375-0.2734375,5.7734375t-0.578125,5.890625t-0.578125,5.9375t-0.2734375,5.9140625q0,0.453125,0.0390625,0.9609375t0.1640625,0.9609375l-0.0625,0.1875q-0.21875,0.359375-0.71875,0.453125t-0.859375,0.09375q-0.765625,0-1.1484375-0.2265625t-0.5078125-0.625t-0.109375-0.921875t0.015625-1.1328125q0-2.109375,0.1875-4.2890625t0.453125-4.2890625q-0.25,0.734375-0.59375,1.7734375t-0.8046875,2.078125t-1.0703125,1.90625t-1.34375,1.2421875l0.03125-0.03125l-0.125,0.0625l0.03125,0q-0.453125,0.25-0.8359375,0.3359375t-0.8984375,0.0859375q-1.03125,0-1.7109375-0.609375t-1.1015625-1.5703125t-0.625-2.15625t-0.2890625-2.3984375t-0.0859375-2.2890625l0-1.7890625q0-0.859375-0.015625-2.046875z M21.53125,34.234375q0.03125,0,0.03125-0.03125l0.03125,0q-0.03125,0.03125-0.0625,0.03125z M32.86984375,30.25l0-0.453125q0-0.5625,0.03125-1.0625q0.03125-0.703125,0.03125-1.15625q0-0.25,0.03125-0.5703125t0.15625-0.5078125q0.15625-0.15625,0.3671875-0.3203125t0.4609375-0.1640625q0.796875,0,1.25,0.1796875t0.484375,0.7421875l0.0625,0.484375q0.28125-0.671875,0.75-1.6640625t1.0859375-1.890625t1.390625-1.53125t1.6328125-0.6328125q0.796875,0,1.3125,0.75t0.8203125,1.9140625t0.4296875,2.59375t0.171875,2.8046875t0.0625,2.5078125t0.109375,1.7109375q0.0625,0.484375,0.2109375,1.0234375t0.1484375,0.9921875q0,0.125-0.1796875,0.2421875t-0.3828125,0.1953125t-0.4140625,0.125t-0.3046875,0.046875q-0.609375,0-0.8671875-0.9140625t-0.3203125-2.2890625t-0.0625-2.9765625t-0.109375-2.9765625t-0.4453125-2.2890625t-1.0703125-0.9453125q-0.671875,0-1.390625,0.8671875t-1.234375,2.3046875q-0.5,1.4375-0.6875,3.265625q-0.0625,0.578125-0.0625,1.15625q0,1.265625,0.265625,2.53125q0.03125,0.21875-0.1796875,0.328125t-0.5234375,0.171875t-0.6328125,0.078125t-0.4921875,0.015625q-0.609375,0-0.9765625-0.4296875t-0.5703125-1.1015625t-0.2734375-1.5078125t-0.0859375-1.6484375z M47.0678125,29.859375q0-1.125,0.2890625-2.2578125t0.8984375-2.03125t1.5546875-1.4609375t2.2265625-0.5625q0.546875,0,1.203125,0.1328125t1.2109375,0.421875t0.9375,0.75t0.3828125,1.1328125q0,0.421875-0.21875,0.5625t-0.578125,0.140625l-0.109375-0.15625t-0.3046875-0.3984375t-0.4140625-0.515625t-0.421875-0.4609375q-0.640625-0.640625-1.203125-0.6875l-0.125,0q-0.46875,0-0.875,0.28125q-0.453125,0.34375-0.8046875,0.96875t-0.5859375,1.328125t-0.3671875,1.421875t-0.1328125,1.1875q0,0.640625,0.1484375,1.4609375t0.5,1.5546875t0.890625,1.234375t1.3828125,0.5q0.765625,0,1.390625-0.375t1.1953125-0.8359375t1.1171875-0.828125t1.125-0.3671875q0.25,0,0.5078125,0.0625t0.2578125,0.328125l0,0.09375q-0.28125,0.734375-0.953125,1.296875t-1.5078125,0.9765625t-1.734375,0.6171875t-1.6015625,0.203125q-1.3125,0-2.3046875-0.4296875t-1.6484375-1.1796875t-0.9921875-1.8046875t-0.3359375-2.3046875z M60.70328125,35.71875q0-0.453125,0.0390625-0.953125t0.0703125-0.9375l0.09375-2.34375q0.15625-2.8125,0.3828125-5.53125t0.3828125-5.5q0.09375-1.53125,0.140625-3.0078125t0.140625-3.0078125q-0.0625-0.125-0.0625-0.171875q0-0.21875,0.1640625-0.34375t0.3828125-0.2109375t0.4609375-0.1171875t0.3671875-0.03125l0.359375,0q0.484375,0.0625,0.703125,0.3046875t0.28125,0.578125t0.03125,0.71875t-0.03125,0.7109375q0,2.265625-0.109375,4.6171875t-0.25,4.71875t-0.2578125,4.734375t-0.1171875,4.6796875l0,1.09375q0,0.734375-0.4140625,0.96875t-1.1484375,0.234375q-0.640625,0-1.125-0.28125t-0.484375-0.921875z M67.87,30.8125q0-1.09375,0.2421875-2.578125t0.8203125-2.8125t1.5234375-2.2578125t2.3828125-0.9296875q1.34375,0,2.015625,0.7734375t0.671875,2.0859375q0,0.859375-0.3203125,1.8828125t-0.9140625,1.9375t-1.40625,1.5234375t-1.8125,0.609375l-0.40625-0.03125q0,0.421875,0.125,1.1328125t0.3671875,1.4140625t0.625,1.234375t0.9296875,0.53125q0.796875,0,1.53125-0.640625t1.390625-1.421875t1.21875-1.421875t1.03125-0.640625q0.25,0,0.515625,0.078125t0.296875,0.4375q0,0.21875-0.1171875,0.359375t-0.2109375,0.3125q-0.484375,0.828125-1.0546875,1.578125t-1.2890625,1.359375t-1.5703125,0.9609375t-1.8828125,0.3515625q-1.34375,0-2.234375-0.4765625t-1.4375-1.28125t-0.7890625-1.859375t-0.2421875-2.2109375z M70.666875,29.625l0.4375,0.390625q0.3125,0.28125,0.625,0.125t0.5625-0.5703125t0.4609375-1.0234375t0.375-1.25t0.2421875-1.25t0.078125-1.015625l0-0.53125t-0.046875-0.5625t-0.1640625-0.4453125t-0.3671875-0.2265625q-0.078125-0.015625-0.140625-0.015625q-0.53125,0-0.90625,0.671875q-0.40625,0.75-0.65625,1.8203125t-0.359375,2.1953125t-0.140625,1.6875z M87.0159375,33.03125q0-0.546875,0.375-0.6953125t0.8125-0.1484375q0.765625,0,1.296875,0.6875t1.0078125,1.5078125t0.9453125,1.5078125t1.109375,0.6875q0.484375,0,0.8828125-0.2421875t0.6875-0.609375t0.4453125-0.828125t0.15625-0.9140625q0-1.1875-0.4765625-2.453125t-1.21875-2.609375t-1.5703125-2.75t-1.5625-2.859375t-1.21875-2.9609375t-0.484375-3.0390625q0-2.296875,1.375-3.5625t3.625-1.265625q0.765625,0,1.546875,0.21875t1.4375,0.65625t1.0703125,1.078125t0.4140625,1.5q0,0.28125-0.4140625,0.3671875t-0.6015625,0.0859375q-0.28125,0-0.609375-0.0703125t-0.421875-0.3828125t-0.265625-0.71875t-0.4296875-0.7578125t-0.609375-0.609375t-0.7734375-0.2578125q-0.703125,0-1.1953125,0.2890625t-0.796875,0.7734375t-0.453125,1.0859375t-0.1484375,1.2421875q0,1.5,0.515625,3.0234375t1.28125,3.03125t1.6640625,2.9765625t1.6640625,2.859375t1.28125,2.71875t0.515625,2.515625q0,1.0625-0.5,1.796875t-1.265625,1.1953125t-1.6953125,0.671875t-1.8203125,0.2109375q-0.953125,0-1.953125-0.3828125t-1.796875-1.0546875t-1.3125-1.5703125t-0.515625-1.9453125z M100.43265625,28.796875q0-0.3125,0.0703125-0.828125t0.1640625-1.0234375t0.21875-0.9453125t0.296875-0.5625q0.125-0.125,0.4296875-0.25t0.640625-0.1796875t0.625,0.046875t0.3515625,0.4140625q-0.21875,0.28125-0.3984375,0.9609375t-0.2734375,1.5078125q-0.078125,0.703125-0.078125,1.453125l0,0.265625q0.015625,0.875,0.15625,1.609375t0.4296875,1.2109375t0.8046875,0.4765625q1.09375,0,2-1.0078125t1.609375-2.4609375t1.234375-3.0859375t0.90625-2.8515625q0.09375-0.359375,0.4453125-0.484375t0.7578125-0.0859375t0.7265625,0.1953125t0.3828125,0.375q-0.3125,2.625-0.4921875,5.25t-0.1796875,5.28125q0,0.515625,0.046875,0.9453125t-0.046875,0.734375t-0.4140625,0.484375t-1.0234375,0.1796875q-0.15625,0-0.3984375-0.03125t-0.5-0.1015625t-0.4375-0.2109375t-0.1796875-0.328125q0-1.15625,0.0859375-2.375t0.2421875-2.359375q-0.421875,0.609375-0.9296875,1.2109375t-1.1171875,1.0859375t-1.3125,0.7734375t-1.515625,0.2890625q-1.15625,0-1.8203125-0.546875t-1-1.3671875t-0.421875-1.7890625t-0.0859375-1.875z M115.130625,35.71875q0-0.453125,0.0390625-0.953125t0.0703125-0.9375l0.09375-2.34375q0.15625-2.8125,0.3828125-5.53125t0.3828125-5.5q0.09375-1.53125,0.140625-3.0078125t0.140625-3.0078125q-0.0625-0.125-0.0625-0.171875q0-0.21875,0.1640625-0.34375t0.3828125-0.2109375t0.4609375-0.1171875t0.3671875-0.03125l0.359375,0q0.484375,0.0625,0.703125,0.3046875t0.28125,0.578125t0.03125,0.71875t-0.03125,0.7109375q0,2.265625-0.109375,4.6171875t-0.25,4.71875t-0.2578125,4.734375t-0.1171875,4.6796875l0,1.09375q0,0.734375-0.4140625,0.96875t-1.1484375,0.234375q-0.640625,0-1.125-0.28125t-0.484375-0.921875z M122.29734375,30.171875q0-1.0625,0.2890625-2.046875t0.8671875-1.7578125t1.4453125-1.234375t2.0078125-0.4609375q0.703125,0,1.5546875,0.2109375t1.6015625,0.625t1.25,1.0546875t0.5,1.46875q0,0.390625-0.1328125,0.59375t-0.5390625,0.203125l-0.171875-0.03125q0.453125,1.21875,0.78125,2.5t0.640625,2.5625q0.125,0.25,0.1875,0.4453125t0.0625,0.3828125q0,0.25-0.140625,0.4140625t-0.3671875,0.2421875t-0.46875,0.109375t-0.4296875,0.03125q-0.671875,0-1.0078125-0.234375t-0.484375-0.640625t-0.1796875-0.9140625t-0.125-1.0234375q-0.1875,0.609375-0.4921875,1.1875t-0.71875,1.0390625t-0.9765625,0.734375t-1.265625,0.2734375q-1.03125,0-1.734375-0.59375t-1.1328125-1.4609375t-0.625-1.8515625t-0.1953125-1.828125z M124.51609375,29.953125q0,0.578125,0.078125,1.21875t0.2578125,1.265625t0.4609375,1.1796875t0.703125,0.9765625q0.765625-0.828125,1.1328125-2.015625t0.65625-2.2890625t0.65625-1.890625t1.1328125-0.7890625q0.484375,0,0.8125,0.171875q-0.15625-0.390625-0.515625-0.7578125t-0.8046875-0.671875t-0.921875-0.5t-0.8984375-0.1953125q-0.125,0-0.2890625,0.0390625t-0.2578125,0.0078125q-0.640625,0.1875-1.0546875,0.6484375t-0.671875,1.0859375t-0.3671875,1.28125t-0.109375,1.234375z"/><path fill="#" d=""/></svg>
